<svg width="114" height="28" viewBox="0 0 114 28" fill="none" xmlns="http://www.w3.org/2000/svg">
<g filter="url(#filter0_d_2_3171)">
<rect x="4" width="105.22" height="20" rx="4" fill="white"/>
<path fill-rule="evenodd" clip-rule="evenodd" d="M10.6663 4.66699C9.92996 4.66699 9.33301 5.26395 9.33301 6.00033V14.0003C9.33301 14.7367 9.92996 15.3337 10.6663 15.3337H17.333C18.0694 15.3337 18.6663 14.7367 18.6663 14.0003V12.1249C18.6663 12.0717 18.7257 12.0399 18.77 12.0694L21.6299 13.976C22.0729 14.2714 22.6663 13.9538 22.6663 13.4213V6.57934C22.6663 6.04687 22.0729 5.72928 21.6299 6.02464L18.77 7.93123C18.7257 7.96077 18.6663 7.92901 18.6663 7.87576V6.00033C18.6663 5.26395 18.0694 4.66699 17.333 4.66699H10.6663Z" fill="#707070"/>
<g clip-path="url(#clip0_2_3171)">
<path d="M35.6699 9.5V9.96875C35.6699 10.6133 35.5859 11.1914 35.418 11.7031C35.25 12.2148 35.0098 12.6504 34.6973 13.0098C34.3887 13.3691 34.0176 13.6445 33.584 13.8359C33.1504 14.0234 32.6699 14.1172 32.1426 14.1172C31.6191 14.1172 31.1406 14.0234 30.707 13.8359C30.2773 13.6445 29.9043 13.3691 29.5879 13.0098C29.2715 12.6504 29.0254 12.2148 28.8496 11.7031C28.6777 11.1914 28.5918 10.6133 28.5918 9.96875V9.5C28.5918 8.85547 28.6777 8.2793 28.8496 7.77148C29.0215 7.25977 29.2637 6.82422 29.5762 6.46484C29.8926 6.10156 30.2656 5.82617 30.6953 5.63867C31.1289 5.44727 31.6074 5.35156 32.1309 5.35156C32.6582 5.35156 33.1387 5.44727 33.5723 5.63867C34.0059 5.82617 34.3789 6.10156 34.6914 6.46484C35.0039 6.82422 35.2441 7.25977 35.4121 7.77148C35.584 8.2793 35.6699 8.85547 35.6699 9.5ZM34.1992 9.96875V9.48828C34.1992 9.01172 34.1523 8.5918 34.0586 8.22852C33.9688 7.86133 33.834 7.55469 33.6543 7.30859C33.4785 7.05859 33.2617 6.87109 33.0039 6.74609C32.7461 6.61719 32.4551 6.55273 32.1309 6.55273C31.8066 6.55273 31.5176 6.61719 31.2637 6.74609C31.0098 6.87109 30.793 7.05859 30.6133 7.30859C30.4375 7.55469 30.3027 7.86133 30.209 8.22852C30.1152 8.5918 30.0684 9.01172 30.0684 9.48828V9.96875C30.0684 10.4453 30.1152 10.8672 30.209 11.2344C30.3027 11.6016 30.4395 11.9121 30.6191 12.166C30.8027 12.416 31.0215 12.6055 31.2754 12.7344C31.5293 12.8594 31.8184 12.9219 32.1426 12.9219C32.4707 12.9219 32.7617 12.8594 33.0156 12.7344C33.2695 12.6055 33.4844 12.416 33.6602 12.166C33.8359 11.9121 33.9688 11.6016 34.0586 11.2344C34.1523 10.8672 34.1992 10.4453 34.1992 9.96875ZM38.4004 9.01367V14H36.9883V7.66016H38.3184L38.4004 9.01367ZM38.1484 10.5957L37.6914 10.5898C37.6953 10.1406 37.7578 9.72852 37.8789 9.35352C38.0039 8.97852 38.1758 8.65625 38.3945 8.38672C38.6172 8.11719 38.8828 7.91016 39.1914 7.76562C39.5 7.61719 39.8438 7.54297 40.2227 7.54297C40.5273 7.54297 40.8027 7.58594 41.0488 7.67188C41.2988 7.75391 41.5117 7.88867 41.6875 8.07617C41.8672 8.26367 42.0039 8.50781 42.0977 8.80859C42.1914 9.10547 42.2383 9.4707 42.2383 9.9043V14H40.8203V9.89844C40.8203 9.59375 40.7754 9.35352 40.6855 9.17773C40.5996 8.99805 40.4727 8.87109 40.3047 8.79688C40.1406 8.71875 39.9355 8.67969 39.6895 8.67969C39.4473 8.67969 39.2305 8.73047 39.0391 8.83203C38.8477 8.93359 38.6855 9.07227 38.5527 9.24805C38.4238 9.42383 38.3242 9.62695 38.2539 9.85742C38.1836 10.0879 38.1484 10.334 38.1484 10.5957ZM45.1914 5V14H43.7734V5H45.1914ZM48.25 7.66016V14H46.832V7.66016H48.25ZM46.7383 5.99609C46.7383 5.78125 46.8086 5.60352 46.9492 5.46289C47.0938 5.31836 47.293 5.24609 47.5469 5.24609C47.7969 5.24609 47.9941 5.31836 48.1387 5.46289C48.2832 5.60352 48.3555 5.78125 48.3555 5.99609C48.3555 6.20703 48.2832 6.38281 48.1387 6.52344C47.9941 6.66406 47.7969 6.73438 47.5469 6.73438C47.293 6.73438 47.0938 6.66406 46.9492 6.52344C46.8086 6.38281 46.7383 6.20703 46.7383 5.99609ZM51.1973 9.01367V14H49.7852V7.66016H51.1152L51.1973 9.01367ZM50.9453 10.5957L50.4883 10.5898C50.4922 10.1406 50.5547 9.72852 50.6758 9.35352C50.8008 8.97852 50.9727 8.65625 51.1914 8.38672C51.4141 8.11719 51.6797 7.91016 51.9883 7.76562C52.2969 7.61719 52.6406 7.54297 53.0195 7.54297C53.3242 7.54297 53.5996 7.58594 53.8457 7.67188C54.0957 7.75391 54.3086 7.88867 54.4844 8.07617C54.6641 8.26367 54.8008 8.50781 54.8945 8.80859C54.9883 9.10547 55.0352 9.4707 55.0352 9.9043V14H53.6172V9.89844C53.6172 9.59375 53.5723 9.35352 53.4824 9.17773C53.3965 8.99805 53.2695 8.87109 53.1016 8.79688C52.9375 8.71875 52.7324 8.67969 52.4863 8.67969C52.2441 8.67969 52.0273 8.73047 51.8359 8.83203C51.6445 8.93359 51.4824 9.07227 51.3496 9.24805C51.2207 9.42383 51.1211 9.62695 51.0508 9.85742C50.9805 10.0879 50.9453 10.334 50.9453 10.5957ZM59.2715 14.1172C58.8027 14.1172 58.3789 14.041 58 13.8887C57.625 13.7324 57.3047 13.5156 57.0391 13.2383C56.7773 12.9609 56.5762 12.6348 56.4355 12.2598C56.2949 11.8848 56.2246 11.4805 56.2246 11.0469V10.8125C56.2246 10.3164 56.2969 9.86719 56.4414 9.46484C56.5859 9.0625 56.7871 8.71875 57.0449 8.43359C57.3027 8.14453 57.6074 7.92383 57.959 7.77148C58.3105 7.61914 58.6914 7.54297 59.1016 7.54297C59.5547 7.54297 59.9512 7.61914 60.291 7.77148C60.6309 7.92383 60.9121 8.13867 61.1348 8.41602C61.3613 8.68945 61.5293 9.01562 61.6387 9.39453C61.752 9.77344 61.8086 10.1914 61.8086 10.6484V11.252H56.9102V10.2383H60.4141V10.127C60.4062 9.87305 60.3555 9.63477 60.2617 9.41211C60.1719 9.18945 60.0332 9.00977 59.8457 8.87305C59.6582 8.73633 59.4082 8.66797 59.0957 8.66797C58.8613 8.66797 58.6523 8.71875 58.4688 8.82031C58.2891 8.91797 58.1387 9.06055 58.0176 9.24805C57.8965 9.43555 57.8027 9.66211 57.7363 9.92773C57.6738 10.1895 57.6426 10.4844 57.6426 10.8125V11.0469C57.6426 11.3242 57.6797 11.582 57.7539 11.8203C57.832 12.0547 57.9453 12.2598 58.0938 12.4355C58.2422 12.6113 58.4219 12.75 58.6328 12.8516C58.8438 12.9492 59.084 12.998 59.3535 12.998C59.6934 12.998 59.9961 12.9297 60.2617 12.793C60.5273 12.6562 60.7578 12.4629 60.9531 12.2129L61.6973 12.9336C61.5605 13.1328 61.3828 13.3242 61.1641 13.5078C60.9453 13.6875 60.6777 13.834 60.3613 13.9473C60.0488 14.0605 59.6855 14.1172 59.2715 14.1172ZM71.623 12.834V14H67.0938V12.834H71.623ZM67.5098 5.46875V14H66.0391V5.46875H67.5098ZM71.0312 9.03125V10.1797H67.0938V9.03125H71.0312ZM71.5938 5.46875V6.64062H67.0938V5.46875H71.5938ZM74.5938 12.8809L76.1465 7.66016H77.6113L75.4082 14H74.4941L74.5938 12.8809ZM73.4043 7.66016L74.9863 12.9043L75.0625 14H74.1484L71.9336 7.66016H73.4043ZM81.1973 14.1172C80.7285 14.1172 80.3047 14.041 79.9258 13.8887C79.5508 13.7324 79.2305 13.5156 78.9648 13.2383C78.7031 12.9609 78.502 12.6348 78.3613 12.2598C78.2207 11.8848 78.1504 11.4805 78.1504 11.0469V10.8125C78.1504 10.3164 78.2227 9.86719 78.3672 9.46484C78.5117 9.0625 78.7129 8.71875 78.9707 8.43359C79.2285 8.14453 79.5332 7.92383 79.8848 7.77148C80.2363 7.61914 80.6172 7.54297 81.0273 7.54297C81.4805 7.54297 81.877 7.61914 82.2168 7.77148C82.5566 7.92383 82.8379 8.13867 83.0605 8.41602C83.2871 8.68945 83.4551 9.01562 83.5645 9.39453C83.6777 9.77344 83.7344 10.1914 83.7344 10.6484V11.252H78.8359V10.2383H82.3398V10.127C82.332 9.87305 82.2812 9.63477 82.1875 9.41211C82.0977 9.18945 81.959 9.00977 81.7715 8.87305C81.584 8.73633 81.334 8.66797 81.0215 8.66797C80.7871 8.66797 80.5781 8.71875 80.3945 8.82031C80.2148 8.91797 80.0645 9.06055 79.9434 9.24805C79.8223 9.43555 79.7285 9.66211 79.6621 9.92773C79.5996 10.1895 79.5684 10.4844 79.5684 10.8125V11.0469C79.5684 11.3242 79.6055 11.582 79.6797 11.8203C79.7578 12.0547 79.8711 12.2598 80.0195 12.4355C80.168 12.6113 80.3477 12.75 80.5586 12.8516C80.7695 12.9492 81.0098 12.998 81.2793 12.998C81.6191 12.998 81.9219 12.9297 82.1875 12.793C82.4531 12.6562 82.6836 12.4629 82.8789 12.2129L83.623 12.9336C83.4863 13.1328 83.3086 13.3242 83.0898 13.5078C82.8711 13.6875 82.6035 13.834 82.2871 13.9473C81.9746 14.0605 81.6113 14.1172 81.1973 14.1172ZM86.2363 9.01367V14H84.8242V7.66016H86.1543L86.2363 9.01367ZM85.9844 10.5957L85.5273 10.5898C85.5312 10.1406 85.5938 9.72852 85.7148 9.35352C85.8398 8.97852 86.0117 8.65625 86.2305 8.38672C86.4531 8.11719 86.7188 7.91016 87.0273 7.76562C87.3359 7.61719 87.6797 7.54297 88.0586 7.54297C88.3633 7.54297 88.6387 7.58594 88.8848 7.67188C89.1348 7.75391 89.3477 7.88867 89.5234 8.07617C89.7031 8.26367 89.8398 8.50781 89.9336 8.80859C90.0273 9.10547 90.0742 9.4707 90.0742 9.9043V14H88.6562V9.89844C88.6562 9.59375 88.6113 9.35352 88.5215 9.17773C88.4355 8.99805 88.3086 8.87109 88.1406 8.79688C87.9766 8.71875 87.7715 8.67969 87.5254 8.67969C87.2832 8.67969 87.0664 8.73047 86.875 8.83203C86.6836 8.93359 86.5215 9.07227 86.3887 9.24805C86.2598 9.42383 86.1602 9.62695 86.0898 9.85742C86.0195 10.0879 85.9844 10.334 85.9844 10.5957ZM94.4219 7.66016V8.69141H90.8477V7.66016H94.4219ZM91.8789 6.10742H93.291V12.248C93.291 12.4434 93.3184 12.5938 93.373 12.6992C93.4316 12.8008 93.5117 12.8691 93.6133 12.9043C93.7148 12.9395 93.834 12.957 93.9707 12.957C94.0684 12.957 94.1621 12.9512 94.252 12.9395C94.3418 12.9277 94.4141 12.916 94.4688 12.9043L94.4746 13.9824C94.3574 14.0176 94.2207 14.0488 94.0645 14.0762C93.9121 14.1035 93.7363 14.1172 93.5371 14.1172C93.2129 14.1172 92.9258 14.0605 92.6758 13.9473C92.4258 13.8301 92.2305 13.6406 92.0898 13.3789C91.9492 13.1172 91.8789 12.7695 91.8789 12.3359V6.10742Z" fill="#707070"/>
</g>
</g>
<defs>
<filter id="filter0_d_2_3171" x="0" y="0" width="113.22" height="28" filterUnits="userSpaceOnUse" color-interpolation-filters="sRGB">
<feFlood flood-opacity="0" result="BackgroundImageFix"/>
<feColorMatrix in="SourceAlpha" type="matrix" values="0 0 0 0 0 0 0 0 0 0 0 0 0 0 0 0 0 0 127 0" result="hardAlpha"/>
<feOffset dy="4"/>
<feGaussianBlur stdDeviation="2"/>
<feComposite in2="hardAlpha" operator="out"/>
<feColorMatrix type="matrix" values="0 0 0 0 0 0 0 0 0 0 0 0 0 0 0 0 0 0 0.25 0"/>
<feBlend mode="normal" in2="BackgroundImageFix" result="effect1_dropShadow_2_3171"/>
<feBlend mode="normal" in="SourceGraphic" in2="effect1_dropShadow_2_3171" result="shape"/>
</filter>
<clipPath id="clip0_2_3171">
<rect width="73.22" height="16" fill="white" transform="translate(28 2)"/>
</clipPath>
</defs>
</svg>
